<svg width="18" height="17" viewBox="0 0 18 17" fill="none" xmlns="http://www.w3.org/2000/svg">
<path d="M7.72313 17.0004H16.1511C16.591 16.9999 17.0127 16.8249 17.3237 16.5138C17.6347 16.2027 17.8096 15.7809 17.81 15.341V6.91352C17.8095 6.47376 17.6345 6.05217 17.3235 5.74126C17.0125 5.43035 16.5909 5.25552 16.1511 5.25513H7.72362C7.28391 5.25552 6.86231 5.43037 6.55139 5.74129C6.24047 6.05222 6.06562 6.47381 6.06523 6.91352V15.341C6.06549 15.7808 6.2402 16.2025 6.55101 16.5136C6.86183 16.8247 7.28337 16.9997 7.72313 17.0004ZM16.1511 6.48722C16.2642 6.48722 16.3727 6.53211 16.4527 6.61205C16.5328 6.69198 16.5778 6.80041 16.5779 6.91352V15.341C16.5779 15.4543 16.533 15.5629 16.4529 15.643C16.3729 15.7231 16.2644 15.7682 16.1511 15.7683H7.72362C7.61047 15.768 7.50204 15.7229 7.42212 15.6428C7.3422 15.5627 7.29732 15.4542 7.29732 15.341V6.91352C7.29732 6.80046 7.34223 6.69203 7.42218 6.61208C7.50212 6.53213 7.61056 6.48722 7.72362 6.48722H16.1511Z" fill="#07B49B"/>
<path d="M2.46602 11.7423H6.67829C6.84167 11.7423 6.99837 11.6774 7.1139 11.5619C7.22943 11.4463 7.29433 11.2896 7.29433 11.1263C7.29433 10.9629 7.22943 10.8062 7.1139 10.6907C6.99837 10.5751 6.84167 10.5102 6.67829 10.5102H2.46602C2.35287 10.5101 2.24439 10.4651 2.16437 10.3851C2.08436 10.3051 2.03935 10.1966 2.03922 10.0834V1.65839C2.03935 1.54528 2.08438 1.43685 2.1644 1.35692C2.24443 1.27699 2.35291 1.23209 2.46602 1.23209H10.8935C11.0066 1.23209 11.1151 1.27699 11.1951 1.35692C11.2752 1.43685 11.3202 1.54528 11.3203 1.65839V5.87115C11.3203 6.03454 11.3852 6.19123 11.5007 6.30676C11.6163 6.42229 11.773 6.4872 11.9364 6.4872C12.0997 6.4872 12.2564 6.42229 12.372 6.30676C12.4875 6.19123 12.5524 6.03454 12.5524 5.87115V1.65839C12.5519 1.21906 12.3773 0.797843 12.0668 0.487003C11.7563 0.176164 11.3353 0.00104293 10.896 0H2.46602C2.02626 0.000391283 1.60462 0.175224 1.29362 0.486134C0.982615 0.797044 0.807655 1.21863 0.807134 1.65839V10.0859C0.808307 10.5253 0.983538 10.9463 1.29446 11.2567C1.60537 11.5672 2.02664 11.7418 2.46602 11.7423Z" fill="#07B49B"/>
</svg>
